<svg width="14" height="15" viewBox="0 0 14 15" fill="none" xmlns="http://www.w3.org/2000/svg">
<path d="M0 0L0 15H6.5625V14.0625H0.9375L0.9375 0.9375L12.1875 0.9375L12.1875 8.4375H13.125L13.125 0L0 0ZM1.875 2.8125V3.75L8.4375 3.75V2.8125L1.875 2.8125ZM1.875 4.6875V5.625L8.4375 5.625V4.6875L1.875 4.6875ZM1.875 6.5625V7.5L8.4375 7.5L8.4375 6.5625L1.875 6.5625ZM10.2649 9.375C9.52725 9.38749 8.82405 9.68931 8.30686 10.2154C7.78967 10.7415 7.49989 11.4498 7.5 12.1875C7.5 12.9334 7.79631 13.6488 8.32376 14.1762C8.85121 14.7037 9.56658 15 10.3125 15C11.0584 15 11.7738 14.7037 12.3012 14.1762C12.8287 13.6488 13.125 12.9334 13.125 12.1875C13.125 11.4416 12.8287 10.7262 12.3012 10.1988C11.7738 9.67132 11.0584 9.375 10.3125 9.375C10.2966 9.37487 10.2808 9.37487 10.2649 9.375ZM10.2649 10.3125C10.2655 10.3125 10.2661 10.3125 10.2667 10.3125C10.282 10.3123 10.2972 10.3123 10.3125 10.3125C10.8098 10.3125 11.2867 10.51 11.6383 10.8617C11.99 11.2133 12.1875 11.6902 12.1875 12.1875H10.3125V14.0625C9.81522 14.0625 9.3383 13.865 8.98667 13.5133C8.63504 13.1617 8.4375 12.6848 8.4375 12.1875C8.43734 11.6984 8.62834 11.2285 8.96974 10.8782C9.31114 10.5279 9.77591 10.3249 10.2649 10.3125Z" fill="#FFA62B"/>
<path d="M9.375 2.8125V3.75H11.25V2.8125L9.375 2.8125ZM9.375 4.6875V5.625H11.25V4.6875H9.375ZM9.375 6.5625V7.5H11.25V6.5625H9.375Z" fill="#FFA62B"/>
</svg>
