<svg width="31" height="36" viewBox="0 0 31 36" fill="none" xmlns="http://www.w3.org/2000/svg">
<path d="M31 0.571289L31 35.9999L15.5 35.9999L15.5 33.7856L28.7857 33.7856L28.7857 2.78558L2.21429 2.78558L2.21429 20.4999L3.17272e-06 20.4999L1.43051e-06 0.571292L31 0.571289ZM26.5714 7.21415L26.5714 9.42843L11.0714 9.42843L11.0714 7.21415L26.5714 7.21415ZM26.5714 11.6427L26.5714 13.857L11.0714 13.857L11.0714 11.6427L26.5714 11.6427ZM26.5714 16.0713L26.5714 18.2856L11.0714 18.2856L11.0714 16.0713L26.5714 16.0713ZM6.7553 22.7141C8.49754 22.7436 10.1584 23.4565 11.38 24.6991C12.6016 25.9417 13.286 27.6145 13.2857 29.357C13.2857 31.1188 12.5858 32.8084 11.3401 34.0542C10.0943 35.3 8.40466 35.9999 6.64286 35.9999C4.88107 35.9999 3.19143 35.3 1.94565 34.0542C0.699874 32.8084 4.10106e-06 31.1188 3.94704e-06 29.357C3.79302e-06 27.5952 0.699873 25.9056 1.94565 24.6598C3.19143 23.414 4.88107 22.7141 6.64286 22.7141C6.68034 22.7138 6.71782 22.7138 6.7553 22.7141ZM6.7553 24.9284C6.75386 24.9284 6.75242 24.9284 6.75098 24.9284C6.71494 24.928 6.6789 24.928 6.64286 24.9284C5.46833 24.9284 4.34191 25.395 3.51139 26.2255C2.68087 27.0561 2.21429 28.1825 2.21429 29.357L6.64286 29.357L6.64286 33.7856C7.81739 33.7856 8.94381 33.319 9.77433 32.4885C10.6049 31.658 11.0714 30.5315 11.0714 29.357C11.0718 28.2017 10.6207 27.092 9.81434 26.2646C9.00798 25.4373 7.91024 24.9578 6.7553 24.9284Z" fill="#FFA62B"/>
<path d="M8.85718 7.21436L8.85718 9.42864L4.42861 9.42864L4.42861 7.21436L8.85718 7.21436ZM8.85718 11.6429L8.85718 13.8572L4.42861 13.8572L4.42861 11.6429L8.85718 11.6429ZM8.85718 16.0715L8.85718 18.2858L4.42861 18.2858L4.42861 16.0715L8.85718 16.0715Z" fill="#FFA62B"/>
</svg>
